<?xml version="1.0" encoding="utf-8"?>
<!-- Generator: Adobe Illustrator 23.0.6, SVG Export Plug-In . SVG Version: 6.00 Build 0)  -->
<svg version="1.1" id="Ebene_1" xmlns="http://www.w3.org/2000/svg" xmlns:xlink="http://www.w3.org/1999/xlink" x="0px" y="0px"
	 viewBox="0 0 1000 1000" style="enable-background:new 0 0 1000 1000;" xml:space="preserve">
<style type="text/css">
	.st0{fill:#F07E25;}
	.st1{font-family:'FiraSans-Regular';}
	.st2{font-size:40px;}
	.st3{fill:#16425B;}
	.st4{font-family:'FiraSans-Medium';}
	.st5{fill:none;}
</style>
<text transform="matrix(1 0 0 1 132.4634 582.5361)"><tspan x="0" y="0" class="st0 st1 st2">Neuro</tspan><tspan x="111.4" y="0" class="st3 st4 st2">DEX</tspan></text>
<path class="st3" d="M263.82,494.99c-9.49,8.9-18.95,17.76-28.44,26.66c2.69,3.72,3.74,7.84,3.01,12.34
	c-0.58,3.54-2.22,6.56-4.82,9.04c-5.09,4.84-12.67,5.83-18.8,2.6c-5.42-2.85-10.53-10.32-7.84-19.06
	c-9.01-4.16-18.04-8.32-27.1-12.5c-2.72,4.23-6.53,6.7-11.55,7.07c-3.43,0.25-6.61-0.63-9.38-2.71c-6.01-4.51-7.7-12.5-4.18-18.79
	c3.35-6,11.86-9.97,19.99-5.41c2.82-3.66,5.64-7.33,8.49-11.03c-2.82-3.67-5.63-7.31-8.43-10.95c-8.22,4.58-16.63,0.76-20-5.33
	c-3.7-6.67-1.76-14.85,4.5-19.1c6.14-4.17,15.57-3.3,20.53,4.55c1.71-0.78,3.42-1.57,5.13-2.36c7.15-3.3,14.31-6.6,21.47-9.89
	c0.42-0.19,0.55-0.37,0.41-0.82c-2.62-9.06,3.51-17.92,11.97-19.87c8.94-2.05,18.06,3.96,19.57,12.99
	c0.72,4.31-0.14,8.24-2.57,11.85c-0.14,0.21-0.28,0.43-0.45,0.69c9.47,8.87,18.93,17.74,28.45,26.65c4.1-3.31,8.72-4.48,13.85-3.14
	c3.66,0.95,6.55,3.07,8.71,6.16c4.17,5.97,3.39,14.23-1.76,19.45C279.54,499.13,270.88,500.63,263.82,494.99z M238.52,485
	c-1.29,7.3-5.26,12.36-12.5,14c-7.87,1.78-13.83-1.46-18.01-8.25c-3.62,1.59-7.24,3.18-10.94,4.8c5.67,7.37,11.28,14.65,16.91,21.97
	c3.01-1.83,6.24-2.64,9.73-2.36c3.51,0.29,6.57,1.68,9.26,3.95c9.51-8.91,18.98-17.79,28.46-26.67c-1.56-2.07-2.5-4.34-2.86-6.83
	c-0.07-0.52-0.25-0.62-0.73-0.62c-5.96,0.01-11.92,0.01-17.89,0.01C239.49,485,239.01,485,238.52,485z M208.11,475.71
	c3.44-6.31,9.9-9.39,16.03-8.54c8.25,1.15,12.83,6.27,14.39,14.32c6.51,0,13.02,0,19.52,0.01c0.38,0,0.46-0.17,0.51-0.5
	c0.3-2.18,1.07-4.2,2.26-6.05c0.17-0.27,0.35-0.54,0.53-0.83c-9.5-8.9-18.96-17.76-28.44-26.64c-2.7,2.27-5.76,3.62-9.24,3.92
	c-3.5,0.31-6.75-0.58-9.77-2.38c-5.62,7.31-11.21,14.57-16.84,21.88C200.81,472.52,204.45,474.11,208.11,475.71z M260.05,483.3
	c0.04,7.54,6.01,13.32,13.1,13.56c7.61,0.26,14-5.73,14.11-13.42c0.11-7.57-5.99-13.71-13.57-13.76
	C266.18,469.62,260.12,475.68,260.05,483.3z M209.68,483.24c-0.08,6.99,5.81,12.97,13.15,12.76c6.63-0.19,12.36-5.98,12.31-12.66
	c-0.06-7.19-5.81-12.93-12.86-12.83C215.29,470.6,209.59,476.36,209.68,483.24z M222.38,544.03c6.95,0,12.76-5.67,12.74-12.59
	c-0.03-7.6-5.98-12.88-12.74-12.86c-7.16,0.02-12.58,5.72-12.72,12.26C209.49,538.77,215.86,544.11,222.38,544.03z M222.34,447.93
	c7.01,0,12.81-5.63,12.79-12.54c-0.02-7.44-5.77-12.89-12.72-12.89c-7.28,0-12.58,5.79-12.74,12.26
	C209.48,442.6,215.79,448.01,222.34,447.93z M211.12,519.52c-0.04-0.06-0.11-0.17-0.19-0.27c-5.61-7.29-11.22-14.58-16.82-21.88
	c-0.28-0.36-0.49-0.36-0.86-0.19c-3.85,1.7-7.71,3.39-11.56,5.09c-0.17,0.08-0.33,0.18-0.51,0.27c0.06,0.23,0.11,0.42,0.16,0.61
	c0.64,2.34,0.69,4.68,0.01,7.01c-0.16,0.56-0.04,0.78,0.48,1.01c7.34,3.37,14.67,6.76,22,10.14c1.49,0.69,2.98,1.37,4.38,2.02
	C209.21,522.03,210.14,520.81,211.12,519.52z M193.78,469.46c5.81-7.55,11.58-15.05,17.31-22.5c-0.99-1.32-1.94-2.57-2.91-3.85
	c-8.97,4.13-17.97,8.28-26.97,12.42c0.02,0.14,0.01,0.23,0.04,0.31c0.76,2.56,0.81,5.13,0.06,7.71c-0.04,0.15,0.15,0.48,0.32,0.55
	C185.64,465.89,189.68,467.66,193.78,469.46z M187.59,483.2c2.45,3.19,4.87,6.34,7.3,9.49c3.86-1.69,7.67-3.37,11.49-5.02
	c0.44-0.19,0.35-0.43,0.3-0.77c-0.18-1.24-0.46-2.49-0.45-3.73c0.01-1.4,0.3-2.79,0.48-4.26c-0.09-0.04-0.28-0.13-0.48-0.22
	c-3.2-1.4-6.39-2.81-9.59-4.21c-0.56-0.24-1.19-0.76-1.65-0.64c-0.49,0.13-0.85,0.85-1.23,1.34
	C191.71,477.84,189.67,480.49,187.59,483.2z M179.83,499.26c3.88-1.69,7.79-3.39,11.77-5.12c-2.09-2.72-4.13-5.39-6.2-8.09
	c-2.66,3.46-5.28,6.87-7.87,10.25C178.3,497.3,179.04,498.26,179.83,499.26z M185.39,480.36c2.08-2.7,4.12-5.35,6.2-8.06
	c-3.96-1.73-7.86-3.43-11.71-5.12c-0.79,1.03-1.52,1.99-2.29,3.01C180.14,473.53,182.73,476.9,185.39,480.36z"/>
<path class="st5" d="M238.52,485c0.5,0,0.97,0,1.45,0c5.96,0,11.92,0,17.89-0.01c0.47,0,0.65,0.1,0.73,0.62
	c0.36,2.49,1.3,4.76,2.86,6.83c-9.48,8.89-18.95,17.76-28.46,26.67c-2.7-2.27-5.75-3.66-9.26-3.95c-3.49-0.29-6.73,0.52-9.73,2.36
	c-5.64-7.32-11.24-14.6-16.91-21.97c3.69-1.62,7.32-3.21,10.94-4.8c4.17,6.79,10.14,10.03,18.01,8.25
	C233.26,497.36,237.23,492.3,238.52,485z"/>
</svg>
